<svg width="25" height="22" viewBox="0 0 25 22" fill="" xmlns="http://www.w3.org/2000/svg">
<path fill-rule="evenodd" clip-rule="evenodd" d="M13.4726 1.34893C13.3241 1.09027 13.11 0.875377 12.8519 0.725937C12.5938 0.576496 12.3008 0.497803 12.0026 0.497803C11.7043 0.497803 11.4113 0.576496 11.1532 0.725937C10.8951 0.875377 10.681 1.09027 10.5326 1.34893L0.247053 18.8494C-0.438447 20.0164 0.383553 21.4999 1.71705 21.4999H22.2866C23.6201 21.4999 24.4436 20.0149 23.7566 18.8494L13.4726 1.34893ZM11.9996 6.49993C11.81 6.50003 11.6225 6.53985 11.4492 6.61682C11.276 6.69379 11.1207 6.80619 10.9936 6.94679C10.8664 7.0874 10.7701 7.25308 10.7108 7.43318C10.6516 7.61327 10.6307 7.80378 10.6496 7.99243L11.1746 13.2529C11.1922 13.4596 11.2867 13.6521 11.4395 13.7924C11.5923 13.9327 11.7921 14.0105 11.9996 14.0105C12.207 14.0105 12.4068 13.9327 12.5596 13.7924C12.7124 13.6521 12.8069 13.4596 12.8246 13.2529L13.3496 7.99243C13.3684 7.80378 13.3475 7.61327 13.2883 7.43318C13.229 7.25308 13.1327 7.0874 13.0055 6.94679C12.8784 6.80619 12.7231 6.69379 12.5499 6.61682C12.3766 6.53985 12.1891 6.50003 11.9996 6.49993ZM12.0026 15.4999C11.6047 15.4999 11.2232 15.658 10.9419 15.9393C10.6606 16.2206 10.5026 16.6021 10.5026 16.9999C10.5026 17.3978 10.6606 17.7793 10.9419 18.0606C11.2232 18.3419 11.6047 18.4999 12.0026 18.4999C12.4004 18.4999 12.7819 18.3419 13.0632 18.0606C13.3445 17.7793 13.5026 17.3978 13.5026 16.9999C13.5026 16.6021 13.3445 16.2206 13.0632 15.9393C12.7819 15.658 12.4004 15.4999 12.0026 15.4999Z" fill=""/>
</svg>
