<svg width="24" height="24" viewBox="0 0 24 24" fill="" xmlns="http://www.w3.org/2000/svg">
<path fill-rule="evenodd" clip-rule="evenodd" d="M21.1236 3.2732C21.2308 3.3805 21.303 3.5178 21.3306 3.66696C21.3582 3.81613 21.3399 3.97015 21.2781 4.1087L12.7926 23.2007C12.7333 23.3342 12.6363 23.4475 12.5135 23.5267C12.3908 23.6059 12.2475 23.6474 12.1014 23.6463C11.9553 23.6452 11.8128 23.6014 11.6912 23.5204C11.5696 23.4394 11.4744 23.3246 11.4171 23.1902L8.35562 16.0412L1.20512 12.9782C1.07121 12.9206 0.956984 12.8252 0.876418 12.7037C0.795851 12.5822 0.752436 12.4399 0.751481 12.2941C0.750526 12.1484 0.792073 12.0055 0.871041 11.8829C0.950009 11.7604 1.06297 11.6636 1.19612 11.6042L20.2881 3.1187C20.4265 3.05727 20.5802 3.03916 20.7291 3.06673C20.8779 3.09431 21.0149 3.16629 21.1221 3.2732H21.1236ZM3.37562 12.2762L9.22112 14.7812C9.39789 14.8574 9.5386 14.9986 9.61412 15.1757L12.1191 21.0212L19.1151 5.2802L3.37562 12.2762Z" fill=""/>
</svg>
