<svg width="36" height="35" viewBox="0 0 36 35" fill="" xmlns="http://www.w3.org/2000/svg">
<g clip-path="url(#clip0_344_2028)">
<path fill-rule="evenodd" clip-rule="evenodd" d="M31.5 0.323944H4.5C3.30653 0.323944 2.16193 0.778017 1.31802 1.58627C0.474106 2.39453 0 3.49076 0 4.6338L0 30.493C0 31.636 0.474106 32.7322 1.31802 33.5405C2.16193 34.3487 3.30653 34.8028 4.5 34.8028H31.5C32.6935 34.8028 33.8381 34.3487 34.682 33.5405C35.5259 32.7322 36 31.636 36 30.493V4.6338C36 3.49076 35.5259 2.39453 34.682 1.58627C33.8381 0.778017 32.6935 0.323944 31.5 0.323944V0.323944ZM2.25 8.63551C2.25 7.61623 3.258 6.78873 4.5 6.78873H31.5C32.742 6.78873 33.75 7.61623 33.75 8.63551V30.8011C33.75 31.8204 32.742 32.6479 31.5 32.6479H4.5C3.258 32.6479 2.25 31.8204 2.25 30.8011V8.63551Z" fill=""/>
<path fill-rule="evenodd" clip-rule="evenodd" d="M14.625 15.4085C15.2217 15.4085 15.794 15.1814 16.216 14.7773C16.6379 14.3732 16.875 13.8251 16.875 13.2535C16.875 12.682 16.6379 12.1339 16.216 11.7298C15.794 11.3256 15.2217 11.0986 14.625 11.0986C14.0283 11.0986 13.456 11.3256 13.034 11.7298C12.6121 12.1339 12.375 12.682 12.375 13.2535C12.375 13.8251 12.6121 14.3732 13.034 14.7773C13.456 15.1814 14.0283 15.4085 14.625 15.4085ZM21.375 15.4085C21.9717 15.4085 22.544 15.1814 22.966 14.7773C23.3879 14.3732 23.625 13.8251 23.625 13.2535C23.625 12.682 23.3879 12.1339 22.966 11.7298C22.544 11.3256 21.9717 11.0986 21.375 11.0986C20.7783 11.0986 20.206 11.3256 19.784 11.7298C19.3621 12.1339 19.125 12.682 19.125 13.2535C19.125 13.8251 19.3621 14.3732 19.784 14.7773C20.206 15.1814 20.7783 15.4085 21.375 15.4085ZM28.125 15.4085C28.7217 15.4085 29.294 15.1814 29.716 14.7773C30.1379 14.3732 30.375 13.8251 30.375 13.2535C30.375 12.682 30.1379 12.1339 29.716 11.7298C29.294 11.3256 28.7217 11.0986 28.125 11.0986C27.5283 11.0986 26.956 11.3256 26.534 11.7298C26.1121 12.1339 25.875 12.682 25.875 13.2535C25.875 13.8251 26.1121 14.3732 26.534 14.7773C26.956 15.1814 27.5283 15.4085 28.125 15.4085ZM7.875 21.8733C8.47174 21.8733 9.04403 21.6462 9.46599 21.2421C9.88795 20.838 10.125 20.2898 10.125 19.7183C10.125 19.1468 9.88795 18.5987 9.46599 18.1946C9.04403 17.7904 8.47174 17.5634 7.875 17.5634C7.27826 17.5634 6.70597 17.7904 6.28401 18.1946C5.86205 18.5987 5.625 19.1468 5.625 19.7183C5.625 20.2898 5.86205 20.838 6.28401 21.2421C6.70597 21.6462 7.27826 21.8733 7.875 21.8733ZM14.625 21.8733C15.2217 21.8733 15.794 21.6462 16.216 21.2421C16.6379 20.838 16.875 20.2898 16.875 19.7183C16.875 19.1468 16.6379 18.5987 16.216 18.1946C15.794 17.7904 15.2217 17.5634 14.625 17.5634C14.0283 17.5634 13.456 17.7904 13.034 18.1946C12.6121 18.5987 12.375 19.1468 12.375 19.7183C12.375 20.2898 12.6121 20.838 13.034 21.2421C13.456 21.6462 14.0283 21.8733 14.625 21.8733ZM21.375 21.8733C21.9717 21.8733 22.544 21.6462 22.966 21.2421C23.3879 20.838 23.625 20.2898 23.625 19.7183C23.625 19.1468 23.3879 18.5987 22.966 18.1946C22.544 17.7904 21.9717 17.5634 21.375 17.5634C20.7783 17.5634 20.206 17.7904 19.784 18.1946C19.3621 18.5987 19.125 19.1468 19.125 19.7183C19.125 20.2898 19.3621 20.838 19.784 21.2421C20.206 21.6462 20.7783 21.8733 21.375 21.8733ZM28.125 21.8733C28.7217 21.8733 29.294 21.6462 29.716 21.2421C30.1379 20.838 30.375 20.2898 30.375 19.7183C30.375 19.1468 30.1379 18.5987 29.716 18.1946C29.294 17.7904 28.7217 17.5634 28.125 17.5634C27.5283 17.5634 26.956 17.7904 26.534 18.1946C26.1121 18.5987 25.875 19.1468 25.875 19.7183C25.875 20.2898 26.1121 20.838 26.534 21.2421C26.956 21.6462 27.5283 21.8733 28.125 21.8733ZM7.875 28.338C8.47174 28.338 9.04403 28.111 9.46599 27.7069C9.88795 27.3027 10.125 26.7546 10.125 26.1831C10.125 25.6116 9.88795 25.0635 9.46599 24.6593C9.04403 24.2552 8.47174 24.0282 7.875 24.0282C7.27826 24.0282 6.70597 24.2552 6.28401 24.6593C5.86205 25.0635 5.625 25.6116 5.625 26.1831C5.625 26.7546 5.86205 27.3027 6.28401 27.7069C6.70597 28.111 7.27826 28.338 7.875 28.338ZM14.625 28.338C15.2217 28.338 15.794 28.111 16.216 27.7069C16.6379 27.3027 16.875 26.7546 16.875 26.1831C16.875 25.6116 16.6379 25.0635 16.216 24.6593C15.794 24.2552 15.2217 24.0282 14.625 24.0282C14.0283 24.0282 13.456 24.2552 13.034 24.6593C12.6121 25.0635 12.375 25.6116 12.375 26.1831C12.375 26.7546 12.6121 27.3027 13.034 27.7069C13.456 28.111 14.0283 28.338 14.625 28.338ZM21.375 28.338C21.9717 28.338 22.544 28.111 22.966 27.7069C23.3879 27.3027 23.625 26.7546 23.625 26.1831C23.625 25.6116 23.3879 25.0635 22.966 24.6593C22.544 24.2552 21.9717 24.0282 21.375 24.0282C20.7783 24.0282 20.206 24.2552 19.784 24.6593C19.3621 25.0635 19.125 25.6116 19.125 26.1831C19.125 26.7546 19.3621 27.3027 19.784 27.7069C20.206 28.111 20.7783 28.338 21.375 28.338Z" fill=""/>
</g>
<defs>
<clipPath id="clip0_344_2028">
<rect width="36" height="34.4789" fill="white" transform="translate(0 0.323944)"/>
</clipPath>
</defs>
</svg>
