<svg width="24" height="24" viewBox="0 0 24 24" fill="" xmlns="http://www.w3.org/2000/svg">
<path fill-rule="evenodd" clip-rule="evenodd" d="M16.4545 7.45505C16.6644 7.24696 16.9478 7.12985 17.2434 7.12903C17.539 7.12822 17.823 7.24377 18.0341 7.4507C18.2452 7.65763 18.3663 7.93931 18.3713 8.23486C18.3764 8.5304 18.2649 8.81605 18.061 9.03005L12.073 16.5151C11.9701 16.6259 11.8459 16.7149 11.7078 16.7766C11.5697 16.8384 11.4206 16.8716 11.2694 16.8744C11.1182 16.8772 10.9679 16.8495 10.8276 16.7929C10.6874 16.7363 10.56 16.652 10.453 16.5451L6.4855 12.5761C6.37497 12.4731 6.28632 12.3489 6.22483 12.2109C6.16334 12.0729 6.13028 11.9239 6.12762 11.7728C6.12495 11.6218 6.15274 11.4717 6.20932 11.3317C6.2659 11.1916 6.35012 11.0643 6.45695 10.9575C6.56377 10.8507 6.69103 10.7665 6.83111 10.7099C6.97119 10.6533 7.12123 10.6255 7.27229 10.6282C7.42334 10.6308 7.57231 10.6639 7.71031 10.7254C7.84831 10.7869 7.97251 10.8755 8.0755 10.9861L11.2165 14.1256L16.426 7.48805C16.4353 7.47643 16.4453 7.46541 16.456 7.45505H16.4545Z" fill=""/>
</svg>
