<svg width="24" height="25" viewBox="0 0 24 25" fill="" xmlns="http://www.w3.org/2000/svg">
<g clip-path="url(#clip0_194_1478)">
<path fill-rule="evenodd" clip-rule="evenodd" d="M3.75 2C3.35218 2 2.97064 2.15804 2.68934 2.43934C2.40804 2.72064 2.25 3.10218 2.25 3.5V5C2.25 5.39782 2.40804 5.77936 2.68934 6.06066C2.97064 6.34196 3.35218 6.5 3.75 6.5H4.5V20C4.5 20.7956 4.81607 21.5587 5.37868 22.1213C5.94129 22.6839 6.70435 23 7.5 23H16.5C17.2956 23 18.0587 22.6839 18.6213 22.1213C19.1839 21.5587 19.5 20.7956 19.5 20V6.5H20.25C20.6478 6.5 21.0294 6.34196 21.3107 6.06066C21.592 5.77936 21.75 5.39782 21.75 5V3.5C21.75 3.10218 21.592 2.72064 21.3107 2.43934C21.0294 2.15804 20.6478 2 20.25 2H15C15 1.60218 14.842 1.22064 14.5607 0.93934C14.2794 0.658035 13.8978 0.5 13.5 0.5H10.5C10.1022 0.5 9.72064 0.658035 9.43934 0.93934C9.15804 1.22064 9 1.60218 9 2H3.75ZM8.25 8C8.44891 8 8.63968 8.07902 8.78033 8.21967C8.92098 8.36032 9 8.55109 9 8.75V19.25C9 19.4489 8.92098 19.6397 8.78033 19.7803C8.63968 19.921 8.44891 20 8.25 20C8.05109 20 7.86032 19.921 7.71967 19.7803C7.57902 19.6397 7.5 19.4489 7.5 19.25V8.75C7.5 8.55109 7.57902 8.36032 7.71967 8.21967C7.86032 8.07902 8.05109 8 8.25 8ZM12 8C12.1989 8 12.3897 8.07902 12.5303 8.21967C12.671 8.36032 12.75 8.55109 12.75 8.75V19.25C12.75 19.4489 12.671 19.6397 12.5303 19.7803C12.3897 19.921 12.1989 20 12 20C11.8011 20 11.6103 19.921 11.4697 19.7803C11.329 19.6397 11.25 19.4489 11.25 19.25V8.75C11.25 8.55109 11.329 8.36032 11.4697 8.21967C11.6103 8.07902 11.8011 8 12 8ZM16.5 8.75C16.5 8.55109 16.421 8.36032 16.2803 8.21967C16.1397 8.07902 15.9489 8 15.75 8C15.5511 8 15.3603 8.07902 15.2197 8.21967C15.079 8.36032 15 8.55109 15 8.75V19.25C15 19.4489 15.079 19.6397 15.2197 19.7803C15.3603 19.921 15.5511 20 15.75 20C15.9489 20 16.1397 19.921 16.2803 19.7803C16.421 19.6397 16.5 19.4489 16.5 19.25V8.75Z" fill=""/>
</g>
<defs>
<clipPath id="clip0_194_1478">
<rect width="24" height="24" fill="" transform="translate(0 0.5)"/>
</clipPath>
</defs>
</svg>
