<svg width="36" height="36" viewBox="0 0 36 36" fill="none" xmlns="http://www.w3.org/2000/svg">
<path fill-rule="evenodd" clip-rule="evenodd" d="M1.125 22.2749C1.42337 22.2749 1.70952 22.3934 1.9205 22.6044C2.13147 22.8154 2.25 23.1015 2.25 23.3999V29.0249C2.25 29.6216 2.48705 30.1939 2.90901 30.6159C3.33097 31.0379 3.90326 31.2749 4.5 31.2749H31.5C32.0967 31.2749 32.669 31.0379 33.091 30.6159C33.5129 30.1939 33.75 29.6216 33.75 29.0249V23.3999C33.75 23.1015 33.8685 22.8154 34.0795 22.6044C34.2905 22.3934 34.5766 22.2749 34.875 22.2749C35.1734 22.2749 35.4595 22.3934 35.6705 22.6044C35.8815 22.8154 36 23.1015 36 23.3999V29.0249C36 30.2184 35.5259 31.363 34.682 32.2069C33.8381 33.0508 32.6935 33.5249 31.5 33.5249H4.5C3.30653 33.5249 2.16193 33.0508 1.31802 32.2069C0.474106 31.363 0 30.2184 0 29.0249V23.3999C0 23.1015 0.118526 22.8154 0.329505 22.6044C0.540483 22.3934 0.826631 22.2749 1.125 22.2749Z" fill="white"/>
<path fill-rule="evenodd" clip-rule="evenodd" d="M17.2049 26.6715C17.3094 26.7763 17.4335 26.8594 17.5702 26.9161C17.7069 26.9728 17.8534 27.002 18.0014 27.002C18.1493 27.002 18.2959 26.9728 18.4325 26.9161C18.5692 26.8594 18.6934 26.7763 18.7979 26.6715L25.5479 19.9215C25.7591 19.7103 25.8778 19.4237 25.8778 19.125C25.8778 18.8263 25.7591 18.5397 25.5479 18.3285C25.3366 18.1173 25.0501 17.9986 24.7514 17.9986C24.4526 17.9986 24.1661 18.1173 23.9549 18.3285L19.1264 23.1593V3.375C19.1264 3.07663 19.0078 2.79048 18.7969 2.5795C18.5859 2.36853 18.2997 2.25 18.0014 2.25C17.703 2.25 17.4168 2.36853 17.2059 2.5795C16.9949 2.79048 16.8764 3.07663 16.8764 3.375V23.1593L12.0479 18.3285C11.8366 18.1173 11.5501 17.9986 11.2514 17.9986C10.9526 17.9986 10.6661 18.1173 10.4549 18.3285C10.2436 18.5397 10.1249 18.8263 10.1249 19.125C10.1249 19.4237 10.2436 19.7103 10.4549 19.9215L17.2049 26.6715Z" fill="white"/>
</svg>
