<svg width="24" height="25" viewBox="0 0 24 25" fill="" xmlns="http://www.w3.org/2000/svg">
<g clip-path="url(#clip0_194_1480)">
<path fill-rule="evenodd" clip-rule="evenodd" d="M19.2865 0.710068C19.1459 0.569465 18.9551 0.490479 18.7563 0.490479C18.5574 0.490479 18.3667 0.569465 18.226 0.710068L15.7555 3.18057L21.316 8.74107L23.7865 6.27207C23.8564 6.2024 23.9118 6.11964 23.9496 6.02852C23.9874 5.9374 24.0068 5.83972 24.0068 5.74107C24.0068 5.64242 23.9874 5.54474 23.9496 5.45362C23.9118 5.3625 23.8564 5.27974 23.7865 5.21007L19.2865 0.710068V0.710068ZM20.2555 9.80157L14.695 4.24107L4.94501 13.9911H5.25551C5.45442 13.9911 5.64519 14.0701 5.78584 14.2107C5.92649 14.3514 6.00551 14.5422 6.00551 14.7411V15.4911H6.75551C6.95442 15.4911 7.14518 15.5701 7.28584 15.7107C7.42649 15.8514 7.50551 16.0422 7.50551 16.2411V16.9911H8.25551C8.45442 16.9911 8.64518 17.0701 8.78584 17.2107C8.92649 17.3514 9.00551 17.5422 9.00551 17.7411V18.4911H9.75551C9.95442 18.4911 10.1452 18.5701 10.2858 18.7107C10.4265 18.8514 10.5055 19.0422 10.5055 19.2411V19.5516L20.2555 9.80157V9.80157ZM9.05351 21.0036C9.02194 20.9196 9.00569 20.8307 9.00551 20.7411V19.9911H8.25551C8.05659 19.9911 7.86583 19.9121 7.72518 19.7714C7.58453 19.6307 7.50551 19.44 7.50551 19.2411V18.4911H6.75551C6.55659 18.4911 6.36583 18.4121 6.22518 18.2714C6.08453 18.1307 6.00551 17.94 6.00551 17.7411V16.9911H5.25551C5.0566 16.9911 4.86583 16.9121 4.72518 16.7714C4.58453 16.6307 4.50551 16.44 4.50551 16.2411V15.4911H3.75551C3.66584 15.4909 3.57693 15.4747 3.49301 15.4431L3.22451 15.7101C3.15303 15.782 3.0969 15.8678 3.05951 15.9621L0.0595075 23.4621C0.00495145 23.5984 -0.0084038 23.7477 0.0210974 23.8915C0.0505986 24.0353 0.121659 24.1673 0.225469 24.2711C0.329278 24.3749 0.461272 24.446 0.605087 24.4755C0.748901 24.505 0.898212 24.4916 1.03451 24.4371L8.53451 21.4371C8.6288 21.3997 8.71453 21.3435 8.78651 21.2721L9.05351 21.0051V21.0036Z" fill=""/>
</g>
<defs>
<clipPath id="clip0_194_1480">
<rect width="24" height="24" fill="" transform="translate(0 0.5)"/>
</clipPath>
</defs>
</svg>
