<svg width="24" height="24" viewBox="0 0 24 24" fill="" xmlns="http://www.w3.org/2000/svg">
<path d="M6 0H14.25V1.5H6C5.60218 1.5 5.22064 1.65804 4.93934 1.93934C4.65804 2.22064 4.5 2.60218 4.5 3V21C4.5 21.3978 4.65804 21.7794 4.93934 22.0607C5.22064 22.342 5.60218 22.5 6 22.5H18C18.3978 22.5 18.7794 22.342 19.0607 22.0607C19.342 21.7794 19.5 21.3978 19.5 21V6.75H21V21C21 21.7956 20.6839 22.5587 20.1213 23.1213C19.5587 23.6839 18.7956 24 18 24H6C5.20435 24 4.44129 23.6839 3.87868 23.1213C3.31607 22.5587 3 21.7956 3 21V3C3 2.20435 3.31607 1.44129 3.87868 0.87868C4.44129 0.316071 5.20435 0 6 0V0Z" fill=""/>
<path d="M14.25 4.5V0L21 6.75H16.5C15.9033 6.75 15.331 6.51295 14.909 6.09099C14.4871 5.66903 14.25 5.09674 14.25 4.5Z" fill=""/>
<path fill-rule="evenodd" clip-rule="evenodd" d="M9.22034 10.7189C9.29001 10.649 9.37277 10.5936 9.46389 10.5558C9.55501 10.518 9.65269 10.4985 9.75134 10.4985C9.84999 10.4985 9.94767 10.518 10.0388 10.5558C10.1299 10.5936 10.2127 10.649 10.2823 10.7189L12.0013 12.4394L13.7203 10.7189C13.8612 10.5781 14.0522 10.4989 14.2513 10.4989C14.4505 10.4989 14.6415 10.5781 14.7823 10.7189C14.9232 10.8597 15.0023 11.0507 15.0023 11.2499C15.0023 11.449 14.9232 11.6401 14.7823 11.7809L13.0618 13.4999L14.7823 15.2189C14.9232 15.3597 15.0023 15.5507 15.0023 15.7499C15.0023 15.949 14.9232 16.1401 14.7823 16.2809C14.6415 16.4217 14.4505 16.5008 14.2513 16.5008C14.0522 16.5008 13.8612 16.4217 13.7203 16.2809L12.0013 14.5604L10.2823 16.2809C10.1415 16.4217 9.9505 16.5008 9.75134 16.5008C9.55218 16.5008 9.36117 16.4217 9.22034 16.2809C9.07951 16.1401 9.00039 15.949 9.00039 15.7499C9.00039 15.5507 9.07951 15.3597 9.22034 15.2189L10.9408 13.4999L9.22034 11.7809C9.1505 11.7112 9.09508 11.6285 9.05727 11.5373C9.01946 11.4462 9 11.3485 9 11.2499C9 11.1512 9.01946 11.0536 9.05727 10.9624C9.09508 10.8713 9.1505 10.7886 9.22034 10.7189Z" fill=""/>
</svg>
