<svg width="24" height="24" viewBox="0 0 24 24" fill="" xmlns="http://www.w3.org/2000/svg">
<path d="M6 0H14.25V1.5H6C5.60218 1.5 5.22064 1.65804 4.93934 1.93934C4.65804 2.22064 4.5 2.60218 4.5 3V21C4.5 21.3978 4.65804 21.7794 4.93934 22.0607C5.22064 22.342 5.60218 22.5 6 22.5H18C18.3978 22.5 18.7794 22.342 19.0607 22.0607C19.342 21.7794 19.5 21.3978 19.5 21V6.75H21V21C21 21.7956 20.6839 22.5587 20.1213 23.1213C19.5587 23.6839 18.7956 24 18 24H6C5.20435 24 4.44129 23.6839 3.87868 23.1213C3.31607 22.5587 3 21.7956 3 21V3C3 2.20435 3.31607 1.44129 3.87868 0.87868C4.44129 0.316071 5.20435 0 6 0V0Z" fill=""/>
<path d="M14.25 4.5V0L21 6.75H16.5C15.9033 6.75 15.331 6.51295 14.909 6.09099C14.4871 5.66903 14.25 5.09674 14.25 4.5Z" fill=""/>
<path fill-rule="evenodd" clip-rule="evenodd" d="M16.2819 10.719C16.3518 10.7887 16.4072 10.8714 16.445 10.9625C16.4828 11.0537 16.5023 11.1513 16.5023 11.25C16.5023 11.3486 16.4828 11.4463 16.445 11.5374C16.4072 11.6286 16.3518 11.7113 16.2819 11.781L11.7819 16.281C11.7123 16.3508 11.6295 16.4063 11.5384 16.4441C11.4473 16.4819 11.3496 16.5013 11.2509 16.5013C11.1523 16.5013 11.0546 16.4819 10.9635 16.4441C10.8724 16.4063 10.7896 16.3508 10.7199 16.281L8.46995 14.031C8.40022 13.9613 8.3449 13.8785 8.30716 13.7874C8.26942 13.6963 8.25 13.5986 8.25 13.5C8.25 13.4014 8.26942 13.3037 8.30716 13.2126C8.3449 13.1215 8.40022 13.0387 8.46995 12.969C8.61078 12.8282 8.80178 12.7491 9.00095 12.7491C9.09956 12.7491 9.19721 12.7685 9.28832 12.8062C9.37943 12.844 9.46222 12.8993 9.53195 12.969L11.2509 14.6895L15.2199 10.719C15.2896 10.6492 15.3724 10.5937 15.4635 10.5559C15.5546 10.5181 15.6523 10.4987 15.7509 10.4987C15.8496 10.4987 15.9473 10.5181 16.0384 10.5559C16.1295 10.5937 16.2123 10.6492 16.2819 10.719Z" fill=""/>
</svg>
