<svg width="36" height="36" viewBox="0 0 36 36" fill="" xmlns="http://www.w3.org/2000/svg">
<path fill-rule="evenodd" clip-rule="evenodd" d="M3.375 3.375C3.375 3.07663 3.49353 2.79048 3.7045 2.5795C3.91548 2.36853 4.20163 2.25 4.5 2.25H31.5C31.7984 2.25 32.0845 2.36853 32.2955 2.5795C32.5065 2.79048 32.625 3.07663 32.625 3.375V7.875C32.625 8.15244 32.5224 8.42008 32.337 8.6265L22.5 19.557V30.375C22.4998 30.611 22.4254 30.841 22.2873 31.0324C22.1492 31.2238 21.9544 31.3669 21.7305 31.4415L14.9805 33.6915C14.8115 33.7478 14.6315 33.7631 14.4554 33.7363C14.2792 33.7094 14.112 33.6411 13.9674 33.537C13.8229 33.4328 13.7051 33.2958 13.6238 33.1373C13.5426 32.9787 13.5001 32.8032 13.5 32.625V19.557L3.663 8.6265C3.47762 8.42008 3.37505 8.15244 3.375 7.875V3.375Z" fill=""/>
</svg>
