<svg width="24" height="24" viewBox="0 0 24 24" fill="" xmlns="http://www.w3.org/2000/svg">
<path fill-rule="evenodd" clip-rule="evenodd" d="M23.0305 3.96888C23.1003 4.03854 23.1557 4.12131 23.1936 4.21243C23.2314 4.30354 23.2508 4.40122 23.2508 4.49988C23.2508 4.59853 23.2314 4.69621 23.1936 4.78733C23.1557 4.87844 23.1003 4.96121 23.0305 5.03088L12.5305 15.5309C12.4608 15.6007 12.3781 15.6561 12.2869 15.6939C12.1958 15.7318 12.0981 15.7512 11.9995 15.7512C11.9008 15.7512 11.8032 15.7318 11.712 15.6939C11.6209 15.6561 11.5382 15.6007 11.4685 15.5309L6.96848 11.0309C6.89875 10.9611 6.84344 10.8784 6.8057 10.7873C6.76796 10.6961 6.74854 10.5985 6.74854 10.4999C6.74854 10.4013 6.76796 10.3036 6.8057 10.2125C6.84344 10.1214 6.89875 10.0386 6.96848 9.96887C7.03821 9.89914 7.121 9.84383 7.21211 9.80609C7.30322 9.76835 7.40087 9.74893 7.49948 9.74893C7.5981 9.74893 7.69575 9.76835 7.78686 9.80609C7.87797 9.84383 7.96075 9.89914 8.03048 9.96887L11.9995 13.9394L21.9685 3.96888C22.0382 3.89903 22.1209 3.84362 22.212 3.80581C22.3032 3.768 22.4008 3.74854 22.4995 3.74854C22.5981 3.74854 22.6958 3.768 22.7869 3.80581C22.878 3.84362 22.9608 3.89903 23.0305 3.96888Z" fill=""/>
<path fill-rule="evenodd" clip-rule="evenodd" d="M2.25 19.5C2.25 20.0967 2.48705 20.669 2.90901 21.091C3.33097 21.5129 3.90326 21.75 4.5 21.75H19.5C20.0967 21.75 20.669 21.5129 21.091 21.091C21.5129 20.669 21.75 20.0967 21.75 19.5V12C21.75 11.8011 21.671 11.6103 21.5303 11.4697C21.3897 11.329 21.1989 11.25 21 11.25C20.8011 11.25 20.6103 11.329 20.4697 11.4697C20.329 11.6103 20.25 11.8011 20.25 12V19.5C20.25 19.6989 20.171 19.8897 20.0303 20.0303C19.8897 20.171 19.6989 20.25 19.5 20.25H4.5C4.30109 20.25 4.11032 20.171 3.96967 20.0303C3.82902 19.8897 3.75 19.6989 3.75 19.5V4.5C3.75 4.30109 3.82902 4.11032 3.96967 3.96967C4.11032 3.82902 4.30109 3.75 4.5 3.75H16.5C16.6989 3.75 16.8897 3.67098 17.0303 3.53033C17.171 3.38968 17.25 3.19891 17.25 3C17.25 2.80109 17.171 2.61032 17.0303 2.46967C16.8897 2.32902 16.6989 2.25 16.5 2.25H4.5C3.90326 2.25 3.33097 2.48705 2.90901 2.90901C2.48705 3.33097 2.25 3.90326 2.25 4.5V19.5Z" fill=""/>
</svg>
