<svg width="36" height="35" viewBox="0 0 36 35" fill="" xmlns="http://www.w3.org/2000/svg">
<path fill-rule="evenodd" clip-rule="evenodd" d="M11.2514 24.7815C11.2514 24.4958 11.3699 24.2217 11.5809 24.0196C11.7919 23.8176 12.0781 23.7041 12.3764 23.7041H32.6264C32.9248 23.7041 33.2109 23.8176 33.4219 24.0196C33.6329 24.2217 33.7514 24.4958 33.7514 24.7815C33.7514 25.0673 33.6329 25.3413 33.4219 25.5434C33.2109 25.7455 32.9248 25.859 32.6264 25.859H12.3764C12.0781 25.859 11.7919 25.7455 11.5809 25.5434C11.3699 25.3413 11.2514 25.0673 11.2514 24.7815ZM11.2514 16.1618C11.2514 15.876 11.3699 15.602 11.5809 15.3999C11.7919 15.1979 12.0781 15.0843 12.3764 15.0843H32.6264C32.9248 15.0843 33.2109 15.1979 33.4219 15.3999C33.6329 15.602 33.7514 15.876 33.7514 16.1618C33.7514 16.4476 33.6329 16.7216 33.4219 16.9237C33.2109 17.1258 32.9248 17.2393 32.6264 17.2393H12.3764C12.0781 17.2393 11.7919 17.1258 11.5809 16.9237C11.3699 16.7216 11.2514 16.4476 11.2514 16.1618ZM11.2514 7.54209C11.2514 7.25633 11.3699 6.98227 11.5809 6.78021C11.7919 6.57814 12.0781 6.46463 12.3764 6.46463H32.6264C32.9248 6.46463 33.2109 6.57814 33.4219 6.78021C33.6329 6.98227 33.7514 7.25633 33.7514 7.54209C33.7514 7.82785 33.6329 8.10191 33.4219 8.30397C33.2109 8.50604 32.9248 8.61955 32.6264 8.61955H12.3764C12.0781 8.61955 11.7919 8.50604 11.5809 8.30397C11.3699 8.10191 11.2514 7.82785 11.2514 7.54209ZM8.67292 4.62432C8.77769 4.7244 8.86081 4.8433 8.91752 4.9742C8.97424 5.10511 9.00343 5.24544 9.00343 5.38716C9.00343 5.52888 8.97424 5.66922 8.91752 5.80012C8.86081 5.93102 8.77769 6.04992 8.67292 6.15001L5.29792 9.3824C5.19342 9.48274 5.06927 9.56235 4.9326 9.61667C4.79592 9.67099 4.6494 9.69895 4.50142 9.69895C4.35344 9.69895 4.20692 9.67099 4.07025 9.61667C3.93357 9.56235 3.80942 9.48274 3.70492 9.3824L2.57992 8.30494C2.47532 8.20476 2.39235 8.08583 2.33574 7.95494C2.27914 7.82405 2.25 7.68376 2.25 7.54209C2.25 7.40042 2.27914 7.26013 2.33574 7.12924C2.39235 6.99835 2.47532 6.87942 2.57992 6.77925C2.68452 6.67907 2.80869 6.5996 2.94536 6.54539C3.08202 6.49117 3.2285 6.46326 3.37642 6.46326C3.52434 6.46326 3.67082 6.49117 3.80748 6.54539C3.94415 6.5996 4.06832 6.67907 4.17292 6.77925L4.50142 7.09602L7.07992 4.62432C7.18442 4.52397 7.30857 4.44437 7.44525 4.39005C7.58192 4.33573 7.72844 4.30777 7.87642 4.30777C8.0244 4.30777 8.17092 4.33573 8.3076 4.39005C8.44427 4.44437 8.56842 4.52397 8.67292 4.62432ZM8.67292 13.244C8.77769 13.3441 8.86081 13.463 8.91752 13.5939C8.97424 13.7248 9.00343 13.8652 9.00343 14.0069C9.00343 14.1486 8.97424 14.2889 8.91752 14.4198C8.86081 14.5507 8.77769 14.6696 8.67292 14.7697L5.29792 18.0021C5.19342 18.1025 5.06927 18.1821 4.9326 18.2364C4.79592 18.2907 4.6494 18.3187 4.50142 18.3187C4.35344 18.3187 4.20692 18.2907 4.07025 18.2364C3.93357 18.1821 3.80942 18.1025 3.70492 18.0021L2.57992 16.9247C2.36868 16.7223 2.25 16.4479 2.25 16.1618C2.25 15.8757 2.36868 15.6013 2.57992 15.399C2.79117 15.1966 3.07768 15.083 3.37642 15.083C3.67517 15.083 3.96168 15.1966 4.17292 15.399L4.50142 15.7157L7.07992 13.244C7.18442 13.1437 7.30857 13.0641 7.44525 13.0098C7.58192 12.9554 7.72844 12.9275 7.87642 12.9275C8.0244 12.9275 8.17092 12.9554 8.3076 13.0098C8.44427 13.0641 8.56842 13.1437 8.67292 13.244ZM8.67292 21.8638C8.77769 21.9638 8.86081 22.0827 8.91752 22.2136C8.97424 22.3445 9.00343 22.4849 9.00343 22.6266C9.00343 22.7683 8.97424 22.9087 8.91752 23.0396C8.86081 23.1705 8.77769 23.2894 8.67292 23.3894L5.29792 26.6218C5.19342 26.7222 5.06927 26.8018 4.9326 26.8561C4.79592 26.9104 4.6494 26.9384 4.50142 26.9384C4.35344 26.9384 4.20692 26.9104 4.07025 26.8561C3.93357 26.8018 3.80942 26.7222 3.70492 26.6218L2.57992 25.5444C2.36868 25.3421 2.25 25.0676 2.25 24.7815C2.25 24.4954 2.36868 24.221 2.57992 24.0187C2.79117 23.8164 3.07768 23.7027 3.37642 23.7027C3.67517 23.7027 3.96168 23.8164 4.17292 24.0187L4.50142 24.3355L7.07992 21.8638C7.18442 21.7634 7.30857 21.6838 7.44525 21.6295C7.58192 21.5752 7.72844 21.5472 7.87642 21.5472C8.0244 21.5472 8.17092 21.5752 8.3076 21.6295C8.44427 21.6838 8.56842 21.7634 8.67292 21.8638Z" fill=""/>
</svg>
