<svg width="36" height="36" viewBox="0 0 36 36" fill="" xmlns="http://www.w3.org/2000/svg">
<g clip-path="url(#clip0_344_2689)">
<path fill-rule="evenodd" clip-rule="evenodd" d="M13.5 28.125C13.5 28.4234 13.6185 28.7095 13.8295 28.9205C14.0405 29.1315 14.3266 29.25 14.625 29.25H32.625C32.9234 29.25 33.2095 29.1315 33.4205 28.9205C33.6315 28.7095 33.75 28.4234 33.75 28.125V7.875C33.75 7.57663 33.6315 7.29048 33.4205 7.0795C33.2095 6.86853 32.9234 6.75 32.625 6.75H14.625C14.3266 6.75 14.0405 6.86853 13.8295 7.0795C13.6185 7.29048 13.5 7.57663 13.5 7.875V12.375C13.5 12.6734 13.3815 12.9595 13.1705 13.1705C12.9595 13.3815 12.6734 13.5 12.375 13.5C12.0766 13.5 11.7905 13.3815 11.5795 13.1705C11.3685 12.9595 11.25 12.6734 11.25 12.375V7.875C11.25 6.97989 11.6056 6.12145 12.2385 5.48851C12.8714 4.85558 13.7299 4.5 14.625 4.5H32.625C33.5201 4.5 34.3786 4.85558 35.0115 5.48851C35.6444 6.12145 36 6.97989 36 7.875V28.125C36 29.0201 35.6444 29.8786 35.0115 30.5115C34.3786 31.1444 33.5201 31.5 32.625 31.5H14.625C13.7299 31.5 12.8714 31.1444 12.2385 30.5115C11.6056 29.8786 11.25 29.0201 11.25 28.125V23.625C11.25 23.3266 11.3685 23.0405 11.5795 22.8295C11.7905 22.6185 12.0766 22.5 12.375 22.5C12.6734 22.5 12.9595 22.6185 13.1705 22.8295C13.3815 23.0405 13.5 23.3266 13.5 23.625V28.125Z" fill=""/>
<path fill-rule="evenodd" clip-rule="evenodd" d="M0.328192 18.7965C0.223424 18.692 0.140303 18.5678 0.0835885 18.4311C0.026874 18.2945 -0.00231934 18.1479 -0.00231934 18C-0.00231934 17.852 0.026874 17.7055 0.0835885 17.5688C0.140303 17.4321 0.223424 17.308 0.328192 17.2035L7.07819 10.4535C7.18279 10.3489 7.30697 10.2659 7.44363 10.2093C7.58029 10.1527 7.72677 10.1235 7.87469 10.1235C8.02262 10.1235 8.16909 10.1527 8.30575 10.2093C8.44242 10.2659 8.56659 10.3489 8.67119 10.4535C8.77579 10.5581 8.85876 10.6822 8.91537 10.8189C8.97198 10.9556 9.00111 11.102 9.00111 11.25C9.00111 11.3979 8.97198 11.5444 8.91537 11.681C8.85876 11.8177 8.77579 11.9419 8.67119 12.0465L3.84044 16.875H23.6247C23.9231 16.875 24.2092 16.9935 24.4202 17.2045C24.6312 17.4154 24.7497 17.7016 24.7497 18C24.7497 18.2983 24.6312 18.5845 24.4202 18.7955C24.2092 19.0064 23.9231 19.125 23.6247 19.125H3.84044L8.67119 23.9535C8.77579 24.0581 8.85876 24.1822 8.91537 24.3189C8.97198 24.4556 9.00111 24.602 9.00111 24.75C9.00111 24.8979 8.97198 25.0444 8.91537 25.181C8.85876 25.3177 8.77579 25.4419 8.67119 25.5465C8.56659 25.6511 8.44242 25.734 8.30575 25.7906C8.16909 25.8472 8.02262 25.8764 7.87469 25.8764C7.72677 25.8764 7.58029 25.8472 7.44363 25.7906C7.30697 25.734 7.18279 25.6511 7.07819 25.5465L0.328192 18.7965Z" fill=""/>
</g>
<defs>
<clipPath id="clip0_344_2689">
<rect width="36" height="36" fill="white"/>
</clipPath>
</defs>
</svg>
