<svg width="36" height="36" viewBox="0 0 36 36" fill="" xmlns="http://www.w3.org/2000/svg">
<path fill-rule="evenodd" clip-rule="evenodd" d="M0.1125 7.99875C0.339341 7.0048 0.896975 6.11733 1.69407 5.48169C2.49117 4.84606 3.48049 4.49993 4.5 4.5H31.5C32.5195 4.49993 33.5088 4.84606 34.3059 5.48169C35.103 6.11733 35.6607 7.0048 35.8875 7.99875L18 18.9315L0.1125 7.99875ZM0 10.5683V26.5523L13.0568 18.5468L0 10.5683ZM15.2123 19.8675L0.42975 28.9283C0.794985 29.6984 1.37143 30.349 2.09201 30.8043C2.81258 31.2595 3.64764 31.5008 4.5 31.5H31.5C32.3522 31.5002 33.187 31.2584 33.9071 30.8027C34.6273 30.347 35.2033 29.6962 35.568 28.926L20.7855 19.8653L18 21.5685L15.2123 19.8653V19.8675ZM22.9432 18.549L36 26.5523V10.5683L22.9432 18.5468V18.549Z" fill=""/>
</svg>
