<svg width="24" height="24" viewBox="0 0 24 24" fill="" xmlns="http://www.w3.org/2000/svg">
<g clip-path="url(#clip0_1315_2468)">
<path fill-rule="evenodd" clip-rule="evenodd" d="M12 22.5C14.7848 22.5 17.4555 21.3938 19.4246 19.4246C21.3938 17.4555 22.5 14.7848 22.5 12C22.5 9.21523 21.3938 6.54451 19.4246 4.57538C17.4555 2.60625 14.7848 1.5 12 1.5C9.21523 1.5 6.54451 2.60625 4.57538 4.57538C2.60625 6.54451 1.5 9.21523 1.5 12C1.5 14.7848 2.60625 17.4555 4.57538 19.4246C6.54451 21.3938 9.21523 22.5 12 22.5ZM12 24C15.1826 24 18.2348 22.7357 20.4853 20.4853C22.7357 18.2348 24 15.1826 24 12C24 8.8174 22.7357 5.76516 20.4853 3.51472C18.2348 1.26428 15.1826 0 12 0C8.8174 0 5.76516 1.26428 3.51472 3.51472C1.26428 5.76516 0 8.8174 0 12C0 15.1826 1.26428 18.2348 3.51472 20.4853C5.76516 22.7357 8.8174 24 12 24Z" fill=""/>
<path fill-rule="evenodd" clip-rule="evenodd" d="M17.0319 6.96888C17.1018 7.03854 17.1572 7.12131 17.195 7.21242C17.2328 7.30354 17.2523 7.40122 17.2523 7.49988C17.2523 7.59853 17.2328 7.69621 17.195 7.78733C17.1572 7.87844 17.1018 7.96121 17.0319 8.03088L8.03195 17.0309C7.89112 17.1717 7.70011 17.2508 7.50095 17.2508C7.30178 17.2508 7.11078 17.1717 6.96995 17.0309C6.82912 16.89 6.75 16.699 6.75 16.4999C6.75 16.3007 6.82912 16.1097 6.96995 15.9689L15.9699 6.96888C16.0396 6.89903 16.1224 6.84362 16.2135 6.80581C16.3046 6.768 16.4023 6.74854 16.5009 6.74854C16.5996 6.74854 16.6973 6.768 16.7884 6.80581C16.8795 6.84362 16.9623 6.89903 17.0319 6.96888Z" fill=""/>
</g>
<defs>
<clipPath id="clip0_1315_2468">
<rect width="24" height="24" fill=""/>
</clipPath>
</defs>
</svg>
