<svg width="55" height="55" viewBox="0 0 55 55" fill="" xmlns="http://www.w3.org/2000/svg">
<path fill-rule="evenodd" clip-rule="evenodd" d="M27.5 13.75C27.9558 13.75 28.393 13.9311 28.7153 14.2534C29.0377 14.5757 29.2188 15.0129 29.2188 15.4688V25.7812H39.5312C39.9871 25.7812 40.4243 25.9623 40.7466 26.2847C41.0689 26.607 41.25 27.0442 41.25 27.5C41.25 27.9558 41.0689 28.393 40.7466 28.7153C40.4243 29.0377 39.9871 29.2188 39.5312 29.2188H29.2188V39.5312C29.2188 39.9871 29.0377 40.4243 28.7153 40.7466C28.393 41.0689 27.9558 41.25 27.5 41.25C27.0442 41.25 26.607 41.0689 26.2847 40.7466C25.9623 40.4243 25.7812 39.9871 25.7812 39.5312V29.2188H15.4688C15.0129 29.2188 14.5757 29.0377 14.2534 28.7153C13.9311 28.393 13.75 27.9558 13.75 27.5C13.75 27.0442 13.9311 26.607 14.2534 26.2847C14.5757 25.9623 15.0129 25.7812 15.4688 25.7812H25.7812V15.4688C25.7812 15.0129 25.9623 14.5757 26.2847 14.2534C26.607 13.9311 27.0442 13.75 27.5 13.75V13.75Z" fill=""/>
</svg>
