<svg width="29" height="29" viewBox="0 0 29 29" fill="" xmlns="http://www.w3.org/2000/svg">
<path fill-rule="evenodd" clip-rule="evenodd" d="M14.5 0.75C14.9558 0.75 15.393 0.931082 15.7153 1.25341C16.0377 1.57574 16.2188 2.01291 16.2188 2.46875V12.7812H26.5312C26.9871 12.7812 27.4243 12.9623 27.7466 13.2847C28.0689 13.607 28.25 14.0442 28.25 14.5C28.25 14.9558 28.0689 15.393 27.7466 15.7153C27.4243 16.0377 26.9871 16.2188 26.5312 16.2188H16.2188V26.5312C16.2188 26.9871 16.0377 27.4243 15.7153 27.7466C15.393 28.0689 14.9558 28.25 14.5 28.25C14.0442 28.25 13.607 28.0689 13.2847 27.7466C12.9623 27.4243 12.7812 26.9871 12.7812 26.5312V16.2188H2.46875C2.01291 16.2188 1.57574 16.0377 1.25341 15.7153C0.931082 15.393 0.75 14.9558 0.75 14.5C0.75 14.0442 0.931082 13.607 1.25341 13.2847C1.57574 12.9623 2.01291 12.7812 2.46875 12.7812H12.7812V2.46875C12.7812 2.01291 12.9623 1.57574 13.2847 1.25341C13.607 0.931082 14.0442 0.75 14.5 0.75Z" fill=""/>
</svg>
