<svg width="36" height="36" viewBox="0 0 36 36" fill="" xmlns="http://www.w3.org/2000/svg">
<path fill-rule="evenodd" clip-rule="evenodd" d="M11.25 25.875C11.25 25.5766 11.3685 25.2905 11.5795 25.0795C11.7905 24.8685 12.0766 24.75 12.375 24.75H32.625C32.9234 24.75 33.2095 24.8685 33.4205 25.0795C33.6315 25.2905 33.75 25.5766 33.75 25.875C33.75 26.1734 33.6315 26.4595 33.4205 26.6705C33.2095 26.8815 32.9234 27 32.625 27H12.375C12.0766 27 11.7905 26.8815 11.5795 26.6705C11.3685 26.4595 11.25 26.1734 11.25 25.875ZM11.25 16.875C11.25 16.5766 11.3685 16.2905 11.5795 16.0795C11.7905 15.8685 12.0766 15.75 12.375 15.75H32.625C32.9234 15.75 33.2095 15.8685 33.4205 16.0795C33.6315 16.2905 33.75 16.5766 33.75 16.875C33.75 17.1734 33.6315 17.4595 33.4205 17.6705C33.2095 17.8815 32.9234 18 32.625 18H12.375C12.0766 18 11.7905 17.8815 11.5795 17.6705C11.3685 17.4595 11.25 17.1734 11.25 16.875ZM11.25 7.875C11.25 7.57663 11.3685 7.29048 11.5795 7.07951C11.7905 6.86853 12.0766 6.75 12.375 6.75H32.625C32.9234 6.75 33.2095 6.86853 33.4205 7.07951C33.6315 7.29048 33.75 7.57663 33.75 7.875C33.75 8.17337 33.6315 8.45952 33.4205 8.67049C33.2095 8.88147 32.9234 9 32.625 9H12.375C12.0766 9 11.7905 8.88147 11.5795 8.67049C11.3685 8.45952 11.25 8.17337 11.25 7.875Z" fill=""/>
<path d="M3.85425 26.6962V25.6297H4.5C4.98825 25.6297 5.31675 25.3215 5.31675 24.9165C5.31675 24.5002 4.96125 24.219 4.5045 24.219C4.00275 24.219 3.67875 24.561 3.66525 24.9165H2.33775C2.37375 23.8657 3.177 23.1457 4.55625 23.1457C5.87925 23.1412 6.70275 23.8005 6.7095 24.7275C6.71376 25.0454 6.60471 25.3545 6.40188 25.5994C6.19905 25.8443 5.91568 26.009 5.6025 26.064V26.1382C5.95757 26.1647 6.28877 26.327 6.52722 26.5915C6.76566 26.8559 6.893 27.2021 6.88275 27.558C6.8895 28.7572 5.75325 29.358 4.518 29.358C3.042 29.358 2.268 28.5255 2.25 27.5715H3.5595C3.5775 27.972 3.978 28.26 4.509 28.2667C5.0805 28.2667 5.463 27.9405 5.4585 27.4792C5.454 27.0405 5.10975 26.6962 4.527 26.6962H3.852H3.85425ZM3.84525 16.1235H2.48625V16.0447C2.48625 15.1267 3.15 14.1457 4.64175 14.1457C5.9535 14.1457 6.80175 14.8792 6.80175 15.8467C6.80175 16.722 6.2235 17.235 5.73075 17.7547L4.5225 19.0417V19.1092H6.894V20.25H2.57175V19.3612L4.725 17.1337C5.0355 16.8142 5.38425 16.4497 5.38425 15.9907C5.38425 15.5857 5.0535 15.2707 4.61475 15.2707C4.51346 15.267 4.41248 15.2841 4.31804 15.3208C4.22359 15.3576 4.13768 15.4134 4.06559 15.4846C3.9935 15.5559 3.93676 15.6411 3.89887 15.7351C3.86097 15.8291 3.84272 15.9299 3.84525 16.0312V16.1235ZM5.769 11.25H4.34025V6.57896H4.2705L2.925 7.52397V6.24821L4.34025 5.25146H5.769V11.25Z" fill=""/>
</svg>
