<svg width="36" height="35" viewBox="0 0 36 35" fill="" xmlns="http://www.w3.org/2000/svg">
<g clip-path="url(#clip0_194_1847)">
<path fill-rule="evenodd" clip-rule="evenodd" d="M9 3.55634H6.75C5.55653 3.55634 4.41193 4.01041 3.56802 4.81866C2.72411 5.62692 2.25 6.72315 2.25 7.86619V30.493C2.25 31.636 2.72411 32.7322 3.56802 33.5405C4.41193 34.3487 5.55653 34.8028 6.75 34.8028H29.25C30.4435 34.8028 31.5881 34.3487 32.432 33.5405C33.2759 32.7322 33.75 31.636 33.75 30.493V7.86619C33.75 6.72315 33.2759 5.62692 32.432 4.81866C31.5881 4.01041 30.4435 3.55634 29.25 3.55634H27V5.71126H29.25C29.8467 5.71126 30.419 5.9383 30.841 6.34243C31.2629 6.74656 31.5 7.29467 31.5 7.86619V30.493C31.5 31.0645 31.2629 31.6126 30.841 32.0167C30.419 32.4208 29.8467 32.6479 29.25 32.6479H6.75C6.15326 32.6479 5.58097 32.4208 5.15901 32.0167C4.73705 31.6126 4.5 31.0645 4.5 30.493V7.86619C4.5 7.29467 4.73705 6.74656 5.15901 6.34243C5.58097 5.9383 6.15326 5.71126 6.75 5.71126H9V3.55634Z" fill=""/>
<path fill-rule="evenodd" clip-rule="evenodd" d="M21.375 2.47887H14.625C14.3266 2.47887 14.0405 2.59239 13.8295 2.79446C13.6185 2.99652 13.5 3.27058 13.5 3.55634V5.71127C13.5 5.99703 13.6185 6.27109 13.8295 6.47315C14.0405 6.67521 14.3266 6.78873 14.625 6.78873H21.375C21.6734 6.78873 21.9595 6.67521 22.1705 6.47315C22.3815 6.27109 22.5 5.99703 22.5 5.71127V3.55634C22.5 3.27058 22.3815 2.99652 22.1705 2.79446C21.9595 2.59239 21.6734 2.47887 21.375 2.47887ZM14.625 0.323944C13.7299 0.323944 12.8714 0.664499 12.2385 1.27069C11.6056 1.87688 11.25 2.69905 11.25 3.55634V5.71127C11.25 6.56855 11.6056 7.39072 12.2385 7.99692C12.8714 8.60311 13.7299 8.94366 14.625 8.94366H21.375C22.2701 8.94366 23.1286 8.60311 23.7615 7.99692C24.3944 7.39072 24.75 6.56855 24.75 5.71127V3.55634C24.75 2.69905 24.3944 1.87688 23.7615 1.27069C23.1286 0.664499 22.2701 0.323944 21.375 0.323944L14.625 0.323944Z" fill=""/>
<path d="M9 24.0282C9 23.4566 9.23705 22.9085 9.65901 22.5044C10.081 22.1003 10.6533 21.8732 11.25 21.8732C11.8467 21.8732 12.419 22.1003 12.841 22.5044C13.2629 22.9085 13.5 23.4566 13.5 24.0282V26.1831C13.5 26.7546 13.2629 27.3027 12.841 27.7069C12.419 28.111 11.8467 28.338 11.25 28.338C10.6533 28.338 10.081 28.111 9.65901 27.7069C9.23705 27.3027 9 26.7546 9 26.1831V24.0282ZM22.5 15.4084C22.5 14.8369 22.7371 14.2888 23.159 13.8847C23.581 13.4805 24.1533 13.2535 24.75 13.2535C25.3467 13.2535 25.919 13.4805 26.341 13.8847C26.7629 14.2888 27 14.8369 27 15.4084V26.1831C27 26.7546 26.7629 27.3027 26.341 27.7069C25.919 28.111 25.3467 28.338 24.75 28.338C24.1533 28.338 23.581 28.111 23.159 27.7069C22.7371 27.3027 22.5 26.7546 22.5 26.1831V15.4084ZM15.75 19.7183C15.75 19.1468 15.9871 18.5987 16.409 18.1945C16.831 17.7904 17.4033 17.5634 18 17.5634C18.5967 17.5634 19.169 17.7904 19.591 18.1945C20.0129 18.5987 20.25 19.1468 20.25 19.7183V26.1831C20.25 26.7546 20.0129 27.3027 19.591 27.7069C19.169 28.111 18.5967 28.338 18 28.338C17.4033 28.338 16.831 28.111 16.409 27.7069C15.9871 27.3027 15.75 26.7546 15.75 26.1831V19.7183Z" fill=""/>
</g>
<defs>
<clipPath id="clip0_194_1847">
<rect width="36" height="34.4789" fill="" transform="translate(0 0.323944)"/>
</clipPath>
</defs>
</svg>
