<svg width="36" height="36" viewBox="0 0 36 36" fill="" xmlns="http://www.w3.org/2000/svg">
<path fill-rule="evenodd" clip-rule="evenodd" d="M2.25 31.5C2.25 31.5 0 31.5 0 29.25C0 27 2.25 20.25 13.5 20.25C24.75 20.25 27 27 27 29.25C27 31.5 24.75 31.5 24.75 31.5H2.25ZM13.5 18C15.2902 18 17.0071 17.2888 18.273 16.023C19.5388 14.7571 20.25 13.0402 20.25 11.25C20.25 9.45979 19.5388 7.7429 18.273 6.47703C17.0071 5.21116 15.2902 4.5 13.5 4.5C11.7098 4.5 9.9929 5.21116 8.72703 6.47703C7.46116 7.7429 6.75 9.45979 6.75 11.25C6.75 13.0402 7.46116 14.7571 8.72703 16.023C9.9929 17.2888 11.7098 18 13.5 18ZM29.25 21.375C29.25 21.0766 29.3685 20.7905 29.5795 20.5795C29.7905 20.3685 30.0766 20.25 30.375 20.25H34.875C35.1734 20.25 35.4595 20.3685 35.6705 20.5795C35.8815 20.7905 36 21.0766 36 21.375C36 21.6734 35.8815 21.9595 35.6705 22.1705C35.4595 22.3815 35.1734 22.5 34.875 22.5H30.375C30.0766 22.5 29.7905 22.3815 29.5795 22.1705C29.3685 21.9595 29.25 21.6734 29.25 21.375ZM24.75 14.625C24.75 14.3266 24.8685 14.0405 25.0795 13.8295C25.2905 13.6185 25.5766 13.5 25.875 13.5H34.875C35.1734 13.5 35.4595 13.6185 35.6705 13.8295C35.8815 14.0405 36 14.3266 36 14.625C36 14.9234 35.8815 15.2095 35.6705 15.4205C35.4595 15.6315 35.1734 15.75 34.875 15.75H25.875C25.5766 15.75 25.2905 15.6315 25.0795 15.4205C24.8685 15.2095 24.75 14.9234 24.75 14.625ZM24.75 7.875C24.75 7.57663 24.8685 7.29048 25.0795 7.0795C25.2905 6.86853 25.5766 6.75 25.875 6.75H34.875C35.1734 6.75 35.4595 6.86853 35.6705 7.0795C35.8815 7.29048 36 7.57663 36 7.875C36 8.17337 35.8815 8.45952 35.6705 8.6705C35.4595 8.88147 35.1734 9 34.875 9H25.875C25.5766 9 25.2905 8.88147 25.0795 8.6705C24.8685 8.45952 24.75 8.17337 24.75 7.875ZM29.25 28.125C29.25 27.8266 29.3685 27.5405 29.5795 27.3295C29.7905 27.1185 30.0766 27 30.375 27H34.875C35.1734 27 35.4595 27.1185 35.6705 27.3295C35.8815 27.5405 36 27.8266 36 28.125C36 28.4234 35.8815 28.7095 35.6705 28.9205C35.4595 29.1315 35.1734 29.25 34.875 29.25H30.375C30.0766 29.25 29.7905 29.1315 29.5795 28.9205C29.3685 28.7095 29.25 28.4234 29.25 28.125Z" fill=""/>
</svg>
